<svg width="14" height="12" viewBox="0 0 14 12" fill="none" xmlns="http://www.w3.org/2000/svg">
<path fill-rule="evenodd" clip-rule="evenodd" d="M9.02683 0.701C9.70016 0.969 9.90616 1.90233 10.1815 2.20233C10.4568 2.50233 10.8508 2.60433 11.0688 2.60433C12.2275 2.60433 13.1668 3.54367 13.1668 4.70167V8.565C13.1668 10.1183 11.9068 11.3783 10.3535 11.3783H3.64683C2.09283 11.3783 0.833496 10.1183 0.833496 8.565V4.70167C0.833496 3.54367 1.77283 2.60433 2.9315 2.60433C3.14883 2.60433 3.54283 2.50233 3.81883 2.20233C4.09416 1.90233 4.2995 0.969 4.97283 0.701C5.64683 0.433 8.3535 0.433 9.02683 0.701Z" stroke="#838991" stroke-width="0.8" stroke-linecap="round" stroke-linejoin="round"/>
<path d="M10.6636 4.33333H10.6696" stroke="#838991" stroke-width="0.8" stroke-linecap="round" stroke-linejoin="round"/>
<path fill-rule="evenodd" clip-rule="evenodd" d="M9.11928 6.75215C9.11928 5.58148 8.17062 4.63281 6.99995 4.63281C5.82928 4.63281 4.88062 5.58148 4.88062 6.75215C4.88062 7.92281 5.82928 8.87148 6.99995 8.87148C8.17062 8.87148 9.11928 7.92281 9.11928 6.75215Z" stroke="#838991" stroke-width="0.8" stroke-linecap="round" stroke-linejoin="round"/>
</svg>
