<svg width="16" height="16" viewBox="0 0 16 16" fill="none" xmlns="http://www.w3.org/2000/svg">
<path fill-rule="evenodd" clip-rule="evenodd" d="M10.0268 2.70087C10.7001 2.96887 10.9061 3.9022 11.1815 4.2022C11.4568 4.5022 11.8508 4.6042 12.0688 4.6042C13.2275 4.6042 14.1668 5.54354 14.1668 6.70154V10.5649C14.1668 12.1182 12.9068 13.3782 11.3535 13.3782H4.6468C3.0928 13.3782 1.83347 12.1182 1.83347 10.5649V6.70154C1.83347 5.54354 2.7728 4.6042 3.93147 4.6042C4.1488 4.6042 4.5428 4.5022 4.8188 4.2022C5.09413 3.9022 5.29947 2.96887 5.9728 2.70087C6.6468 2.43287 9.35347 2.43287 10.0268 2.70087Z" stroke="#838991" stroke-width="0.8" stroke-linecap="round" stroke-linejoin="round"/>
<path d="M11.6637 6.33333H11.6697" stroke="#838991" stroke-width="0.8" stroke-linecap="round" stroke-linejoin="round"/>
<path fill-rule="evenodd" clip-rule="evenodd" d="M10.1193 8.752C10.1193 7.58133 9.17058 6.63267 7.99992 6.63267C6.82925 6.63267 5.88058 7.58133 5.88058 8.752C5.88058 9.92267 6.82925 10.8713 7.99992 10.8713C9.17058 10.8713 10.1193 9.92267 10.1193 8.752Z" stroke="#838991" stroke-width="0.8" stroke-linecap="round" stroke-linejoin="round"/>
</svg>
