<svg width="10" height="10" viewBox="0 0 10 10" fill="none" xmlns="http://www.w3.org/2000/svg">
<path d="M8.05159 3.94531C8.05159 3.94531 7.82534 6.75156 7.69409 7.93365C7.63159 8.49823 7.28284 8.82906 6.71159 8.83948C5.62451 8.85906 4.53617 8.86031 3.44951 8.8374C2.89992 8.82615 2.55701 8.49115 2.49576 7.93656C2.36367 6.74406 2.13867 3.94531 2.13867 3.94531" stroke="white" stroke-width="0.6" stroke-linecap="round" stroke-linejoin="round"/>
<path d="M8.62833 2.59993H1.5625" stroke="white" stroke-width="0.6" stroke-linecap="round" stroke-linejoin="round"/>
<path d="M7.26674 2.59999C6.93966 2.59999 6.65799 2.36874 6.59383 2.04832L6.49258 1.54166C6.43008 1.30791 6.21841 1.14624 5.97716 1.14624H4.21341C3.97216 1.14624 3.76049 1.30791 3.69799 1.54166L3.59674 2.04832C3.53258 2.36874 3.25091 2.59999 2.92383 2.59999" stroke="white" stroke-width="0.6" stroke-linecap="round" stroke-linejoin="round"/>
</svg>
