<svg width="99" height="76" viewBox="0 0 99 76" fill="none" xmlns="http://www.w3.org/2000/svg">
<g filter="url(#filter0_d_1_4)">
<path d="M43.5938 10.7349H84.5298C86.3829 10.7349 87.8852 12.2424 87.8852 14.1021H43.5938V10.7349Z" fill="#FF4A22"/>
<path d="M4 8.57027C4.10388 7.18908 5.43349 4.36751 9.92095 4.13074C14.4084 3.89396 29.6575 4.03208 36.721 4.13074C39.4586 4.13074 42.811 5.55513 43.5769 9.03147C43.9232 10.6032 44.8202 13.1971 46.8659 13.8977H49.1862C48.2837 14.1519 47.5166 14.1206 46.8659 13.8977H4V8.57027Z" fill="white"/>
<path d="M4 13.4286H86.7365C91.3003 13.4286 95 17.1414 95 21.7213V63.7074C95 68.2873 91.3003 72 86.7365 72H12.2635C7.6997 72 4 68.2873 4 63.7074V13.4286Z" fill="white"/>
<path d="M43.5938 10.7349H84.5298C86.3829 10.7349 87.8852 12.2424 87.8852 14.1021H43.5938V10.7349Z" fill="#FF4A22"/>
<path d="M4 8.57027C4.10388 7.18908 5.43349 4.36751 9.92095 4.13074C14.4084 3.89396 29.6575 4.03208 36.721 4.13074C39.4586 4.13074 42.811 5.55513 43.5769 9.03147C43.9232 10.6032 44.8202 13.1971 46.8659 13.8977H49.1862C48.2837 14.1519 47.5166 14.1206 46.8659 13.8977H4V8.57027Z" fill="white"/>
<path d="M4 13.4286H86.7365C91.3003 13.4286 95 17.1414 95 21.7213V63.7074C95 68.2873 91.3003 72 86.7365 72H12.2635C7.6997 72 4 68.2873 4 63.7074V13.4286Z" fill="white"/>
</g>
<defs>
<filter id="filter0_d_1_4" x="0" y="0" width="99" height="76" filterUnits="userSpaceOnUse" color-interpolation-filters="sRGB">
<feFlood flood-opacity="0" result="BackgroundImageFix"/>
<feColorMatrix in="SourceAlpha" type="matrix" values="0 0 0 0 0 0 0 0 0 0 0 0 0 0 0 0 0 0 127 0" result="hardAlpha"/>
<feOffset/>
<feGaussianBlur stdDeviation="2"/>
<feComposite in2="hardAlpha" operator="out"/>
<feColorMatrix type="matrix" values="0 0 0 0 0.813249 0 0 0 0 0.813249 0 0 0 0 0.813249 0 0 0 0.26 0"/>
<feBlend mode="normal" in2="BackgroundImageFix" result="effect1_dropShadow_1_4"/>
<feBlend mode="normal" in="SourceGraphic" in2="effect1_dropShadow_1_4" result="shape"/>
</filter>
</defs>
</svg>
