<svg width="54" height="54" viewBox="0 0 54 54" fill="none" xmlns="http://www.w3.org/2000/svg">
<path fill-rule="evenodd" clip-rule="evenodd" d="M26.8537 26.6985H26.9229C33.2411 26.6985 38.3814 21.5583 38.3814 15.24C38.3814 8.92179 33.2411 3.7793 26.9229 3.7793C20.6024 3.7793 15.4621 8.92179 15.4621 15.2333C15.451 18.2876 16.6312 21.1612 18.7819 23.3275C20.9303 25.4916 23.7972 26.6896 26.8537 26.6985ZM18.8086 15.24C18.8086 10.7668 22.4497 7.12582 26.9229 7.12582C31.396 7.12582 35.0348 10.7668 35.0348 15.24C35.0348 19.7132 31.396 23.352 26.9229 23.352H26.8604C24.7008 23.3476 22.6772 22.4998 21.1557 20.9671C19.6341 19.4366 18.8019 17.4041 18.8086 15.24Z" fill="#CBD0D5"/>
<path fill-rule="evenodd" clip-rule="evenodd" d="M9.99561 42.0121C9.99561 50.0995 22.7481 50.0995 26.938 50.0995C31.1278 50.0995 43.8825 50.0995 43.8825 41.963C43.8825 35.7318 36.1231 30.4665 26.938 30.4665C17.7551 30.4665 9.99561 35.7541 9.99561 42.0121ZM13.3421 42.0121C13.3421 38.1413 19.1562 33.8131 26.938 33.8131C34.722 33.8131 40.536 38.1167 40.536 41.963C40.536 45.14 35.9602 46.753 26.938 46.753C17.918 46.753 13.3421 45.1578 13.3421 42.0121Z" fill="#CBD0D5"/>
</svg>
