<svg width="11" height="11" viewBox="0 0 11 11" fill="none" xmlns="http://www.w3.org/2000/svg">
<g id="_&#235;&#160;&#136;&#236;&#157;&#180;&#236;&#150;&#180;_1" clip-path="url(#clip0_1327_10230)">
<path id="Vector" d="M11 8.5525C11 9.9044 9.9042 11 8.55285 11H2.44715C1.09524 11 0 9.9044 0 8.5525V2.4475C0 1.0956 1.0958 0 2.44715 0H8.5523C9.9042 0 10.9994 1.0956 10.9994 2.4475V8.5525H11Z" fill="#FAE100"/>
<g id="Group">
<path id="Vector_2" d="M5.49992 1.88574C3.31496 1.88574 1.54321 3.27779 1.54321 4.99599C1.54321 6.11414 2.29384 7.09369 3.42006 7.64204C3.33709 7.94894 3.12025 8.75469 3.07711 8.92684C3.02345 9.14079 3.15565 9.13804 3.2425 9.08084C3.31054 9.03574 4.32668 8.34879 4.76478 8.05234C5.00263 8.08754 5.24823 8.10624 5.49936 8.10624C7.68432 8.10624 9.45607 6.71419 9.45607 4.99654C9.45607 3.27889 7.68487 1.88629 5.49936 1.88629" fill="#371C1D"/>
<g id="Group_2">
<g id="Group_3">
<path id="Vector_3" d="M2.73969 4.42346H3.14681C3.14681 4.42346 3.14958 5.53556 3.14681 5.79461C3.14736 5.98381 3.57053 5.98656 3.56997 5.79736L3.57163 4.43776C3.57163 4.43776 3.70826 4.43886 3.97709 4.43886C4.23044 4.43886 4.23044 4.04286 3.97709 4.04286C3.69167 4.04286 2.73858 4.03516 2.73858 4.03516C2.49962 4.03516 2.50018 4.42346 2.73858 4.42346" fill="#F8E049"/>
<g id="Clip path group">
<mask id="mask0_1327_10230" style="mask-type:luminance" maskUnits="userSpaceOnUse" x="2" y="4" width="3" height="2">
<g id="clippath-1">
<path id="Vector_4" d="M2.73969 4.42443H3.14681C3.14681 4.42443 3.14958 5.53653 3.14681 5.79558C3.14736 5.98478 3.57053 5.98753 3.56997 5.79833L3.57163 4.43873C3.57163 4.43873 3.70826 4.43983 3.97709 4.43983C4.23044 4.43983 4.23044 4.04383 3.97709 4.04383C3.69167 4.04383 2.73858 4.03613 2.73858 4.03613C2.49962 4.03613 2.50018 4.42443 2.73858 4.42443" fill="white"/>
</g>
</mask>
<g mask="url(#mask0_1327_10230)">
<g id="Group_4">
<path id="Vector_5" d="M4.23094 4.03613H2.50012V5.98753H4.23094V4.03613Z" fill="#F8E049"/>
</g>
</g>
</g>
</g>
<g id="Group_5">
<path id="Vector_6" d="M4.68906 4.49452L4.91585 5.20072H4.44346L4.68906 4.49452ZM4.43516 4.16397C4.33504 4.38342 3.97273 5.41962 3.85269 5.69462C3.76585 5.89317 4.14033 6.05542 4.22718 5.85687L4.30849 5.57362H5.05359C5.05359 5.57362 5.02814 5.58517 5.12716 5.84477C5.20736 6.05487 5.59402 5.90912 5.51381 5.69902C5.39931 5.39872 5.0038 4.31742 4.93134 4.16452C4.89815 4.09357 4.77867 4.04297 4.66306 4.04297C4.56737 4.04297 4.47388 4.07762 4.43461 4.16452" fill="#F8E049"/>
<g id="Clip path group_2">
<mask id="mask1_1327_10230" style="mask-type:luminance" maskUnits="userSpaceOnUse" x="3" y="4" width="3" height="2">
<g id="clippath-4">
<path id="Vector_7" d="M4.6893 4.49452L4.9161 5.20072H4.4437L4.6893 4.49452ZM4.43541 4.16397C4.33529 4.38342 3.97297 5.41962 3.85294 5.69462C3.76609 5.89317 4.14058 6.05542 4.22742 5.85687L4.30873 5.57362H5.05383C5.05383 5.57362 5.02839 5.58517 5.1274 5.84477C5.20761 6.05487 5.59426 5.90912 5.51406 5.69902C5.39955 5.39872 5.00405 4.31742 4.93159 4.16452C4.8984 4.09357 4.77891 4.04297 4.66331 4.04297C4.56761 4.04297 4.47413 4.07762 4.43485 4.16452" fill="white"/>
</g>
</mask>
<g mask="url(#mask1_1327_10230)">
<g id="Group_6">
<path id="Vector_8" d="M5.59459 4.04297H3.76587V6.05597H5.59459V4.04297Z" fill="#F8E049"/>
</g>
</g>
</g>
</g>
<g id="Group_7">
<path id="Vector_9" d="M5.6568 4.22887C5.65736 4.58087 5.65902 5.71607 5.65902 5.71607C5.65902 5.71607 5.62638 5.94157 5.82054 5.94157C6.01469 5.94157 6.44671 5.93937 6.6381 5.93937C6.82949 5.93937 6.82838 5.53457 6.63699 5.53457C6.4456 5.53457 6.09601 5.53237 6.09601 5.53237C6.09601 5.53237 6.09767 4.48242 6.09711 4.22777C6.09711 4.10457 5.98704 4.04297 5.87696 4.04297C5.76688 4.04297 5.65625 4.10512 5.65625 4.22887" fill="#F8E049"/>
<g id="Clip path group_3">
<mask id="mask2_1327_10230" style="mask-type:luminance" maskUnits="userSpaceOnUse" x="5" y="4" width="2" height="2">
<g id="clippath-7">
<path id="Vector_10" d="M5.65692 4.22887C5.65748 4.58087 5.65914 5.71607 5.65914 5.71607C5.65914 5.71607 5.6265 5.94157 5.82066 5.94157C6.01482 5.94157 6.44683 5.93937 6.63822 5.93937C6.82961 5.93937 6.8285 5.53457 6.63711 5.53457C6.44572 5.53457 6.09613 5.53237 6.09613 5.53237C6.09613 5.53237 6.09779 4.48242 6.09724 4.22777C6.09724 4.10457 5.98716 4.04297 5.87708 4.04297C5.767 4.04297 5.65637 4.10512 5.65637 4.22887" fill="white"/>
</g>
</mask>
<g mask="url(#mask2_1327_10230)">
<g id="Group_8">
<path id="Vector_11" d="M6.82952 4.04297H5.62585V5.94157H6.82952V4.04297Z" fill="#F8E049"/>
</g>
</g>
</g>
</g>
<g id="Group_9">
<path id="Vector_12" d="M6.88071 4.17277C6.88514 4.32732 6.87573 5.72377 6.87573 5.82717C6.87573 5.99052 7.29392 5.98997 7.29392 5.82717C7.29392 5.63742 7.29392 5.27772 7.29392 5.27772L7.41672 5.17982L7.95327 5.90802C8.06169 6.05047 8.40354 5.79307 8.29512 5.65062L7.72482 4.90372C7.72482 4.90372 8.11203 4.48737 8.26415 4.33667C8.3532 4.24867 8.07773 3.97257 7.98868 4.06112C7.90238 4.14637 7.29613 4.74972 7.29613 4.74972C7.29613 4.74972 7.30166 4.37077 7.29613 4.16122C7.29392 4.08147 7.19601 4.04297 7.09533 4.04297C6.98802 4.04297 6.87794 4.08697 6.88016 4.17222" fill="#F8E049"/>
<g id="Clip path group_4">
<mask id="mask3_1327_10230" style="mask-type:luminance" maskUnits="userSpaceOnUse" x="6" y="4" width="3" height="2">
<g id="clippath-10">
<path id="Vector_13" d="M6.88059 4.17277C6.88501 4.32732 6.87561 5.72377 6.87561 5.82717C6.87561 5.99052 7.29379 5.98997 7.29379 5.82717C7.29379 5.63742 7.29379 5.27772 7.29379 5.27772L7.41659 5.17982L7.95315 5.90802C8.06157 6.05047 8.40342 5.79307 8.295 5.65062L7.7247 4.90372C7.7247 4.90372 8.11191 4.48737 8.26402 4.33667C8.35308 4.24867 8.07761 3.97257 7.98855 4.06112C7.90226 4.14637 7.29601 4.74972 7.29601 4.74972C7.29601 4.74972 7.30154 4.37077 7.29601 4.16122C7.29379 4.08147 7.19589 4.04297 7.09521 4.04297C6.9879 4.04297 6.87782 4.08697 6.88004 4.17222" fill="white"/>
</g>
</mask>
<g mask="url(#mask3_1327_10230)">
<g id="Group_10">
<path id="Vector_14" d="M8.40354 3.97461H6.87573V6.05141H8.40354V3.97461Z" fill="#F8E049"/>
</g>
</g>
</g>
</g>
</g>
</g>
</g>
<defs>
<clipPath id="clip0_1327_10230">
<rect width="11" height="11" fill="white"/>
</clipPath>
</defs>
</svg>
