<svg width="12" height="12" viewBox="0 0 12 12" fill="none" xmlns="http://www.w3.org/2000/svg">
<g id="solar:link-bold" clip-path="url(#clip0_335_7940)">
<path id="Vector" d="M7.86447 1.94219C8.58147 1.22219 9.63047 1.20719 10.211 1.79019C10.793 2.37419 10.7775 3.43019 10.0595 4.15019L8.84797 5.36669C8.77976 5.43751 8.74209 5.53229 8.74308 5.63062C8.74407 5.72895 8.78364 5.82295 8.85327 5.89238C8.9229 5.96181 9.01701 6.00112 9.11534 6.00183C9.21367 6.00254 9.30835 5.96461 9.37897 5.89619L10.591 4.67969C11.5465 3.72019 11.6665 2.18869 10.7425 1.26069C9.81747 0.332191 8.28897 0.453191 7.33247 1.41269L4.90947 3.84619C3.95397 4.80569 3.83397 6.33719 4.75797 7.26469C4.79248 7.30058 4.8338 7.32924 4.8795 7.34899C4.9252 7.36874 4.97438 7.3792 5.02417 7.37974C5.07395 7.38029 5.12335 7.37092 5.16947 7.35217C5.2156 7.33342 5.25753 7.30568 5.29282 7.27056C5.32811 7.23543 5.35605 7.19363 5.37501 7.1476C5.39398 7.10156 5.40358 7.05221 5.40327 7.00242C5.40296 6.95263 5.39274 6.90341 5.3732 6.85761C5.35366 6.81182 5.3252 6.77037 5.28947 6.73569C4.70747 6.15169 4.72347 5.09569 5.44097 4.37569L7.86447 1.94219Z" fill="white"/>
<path id="Vector_2" d="M7.24249 4.7353C7.1722 4.66482 7.0768 4.62514 6.97727 4.625C6.87773 4.62486 6.78222 4.66427 6.71174 4.73455C6.64125 4.80483 6.60158 4.90023 6.60144 4.99977C6.6013 5.0993 6.6407 5.19482 6.71099 5.2653C7.29298 5.8493 7.27749 6.9048 6.55949 7.6253L4.13599 10.0583C3.41849 10.7783 2.36949 10.7933 1.78899 10.2103C1.20699 9.6263 1.22299 8.5703 1.94049 7.8503L3.15249 6.6338C3.18725 6.5989 3.21481 6.55749 3.23357 6.51195C3.25234 6.4664 3.26195 6.4176 3.26186 6.36834C3.26176 6.31908 3.25197 6.27032 3.23303 6.22484C3.21409 6.17937 3.18638 6.13806 3.15149 6.1033C3.11659 6.06853 3.07518 6.04098 3.02963 6.02221C2.98409 6.00345 2.93529 5.99383 2.88603 5.99393C2.83677 5.99402 2.78801 6.00381 2.74253 6.02275C2.69705 6.04169 2.65575 6.0694 2.62099 6.1043L1.40899 7.3208C0.453485 8.2808 0.333485 9.8118 1.25749 10.7398C2.18249 11.6688 3.71099 11.5473 4.66749 10.5878L7.09099 8.1543C8.04649 7.1953 8.16648 5.6628 7.24249 4.7353Z" fill="white"/>
</g>
<defs>
<clipPath id="clip0_335_7940">
<rect width="12" height="12" fill="white"/>
</clipPath>
</defs>
</svg>
