<svg width="93" height="22" viewBox="0 0 93 22" fill="none" xmlns="http://www.w3.org/2000/svg">
<g id="TIP.ZIP">
<path id="Vector" d="M80.1909 4.07053V12.2116H84.2614C84.8193 12.2116 85.3441 12.1076 85.8357 11.8996C86.3274 11.6821 86.7576 11.389 87.1264 11.0202C87.4952 10.6515 87.7835 10.2212 87.9916 9.72956C88.209 9.22843 88.3178 8.69893 88.3178 8.14106C88.3178 7.5832 88.209 7.05843 87.9916 6.56675C87.7835 6.06561 87.4952 5.63067 87.1264 5.26191C86.7576 4.89315 86.3274 4.60476 85.8357 4.39674C85.3441 4.17927 84.8193 4.07053 84.2614 4.07053H80.1909ZM80.1909 20.3385H76.1204V0H84.2614C85.0084 0 85.727 0.0992813 86.4172 0.297844C87.1075 0.486951 87.7505 0.761156 88.3461 1.12046C88.9513 1.47031 89.4997 1.8958 89.9914 2.39693C90.4925 2.88861 90.918 3.43702 91.2678 4.04217C91.6271 4.64731 91.9014 5.295 92.0905 5.98524C92.289 6.67548 92.3883 7.39409 92.3883 8.14106C92.3883 9.2568 92.1756 10.3111 91.7501 11.3039C91.3246 12.2872 90.7431 13.1477 90.0056 13.8852C89.268 14.6227 88.4029 15.2042 87.4101 15.6297C86.4267 16.0552 85.3772 16.2679 84.2614 16.2679H80.1909V20.3385Z" fill="#FF4A22"/>
<path id="Vector_2" d="M72.3335 20.3385H68.2629V0H72.3335V20.3385Z" fill="#FF4A22"/>
<path id="Vector_3" d="M65.7383 20.3385H49.9951L58.6751 4.07053H49.9951V0H65.7383L57.0866 16.2679H65.7383V20.3385Z" fill="#FF4A22"/>
<path id="Vector_4" d="M47.9102 18.8918C47.9102 19.2322 47.8487 19.5537 47.7258 19.8563C47.6029 20.1494 47.4327 20.4047 47.2152 20.6222C46.9977 20.8396 46.7424 21.0098 46.4493 21.1327C46.1562 21.2651 45.8394 21.3313 45.4991 21.3313C45.1681 21.3313 44.8514 21.2651 44.5488 21.1327C44.2557 21.0098 43.9957 20.8396 43.7687 20.6222C43.5512 20.4047 43.3763 20.1494 43.2439 19.8563C43.121 19.5537 43.0596 19.2322 43.0596 18.8918C43.0596 18.5609 43.121 18.2489 43.2439 17.9557C43.3763 17.6626 43.5512 17.4073 43.7687 17.1899C43.9957 16.9724 44.2557 16.8022 44.5488 16.6793C44.8514 16.5469 45.1681 16.4807 45.4991 16.4807C45.8394 16.4807 46.1562 16.5469 46.4493 16.6793C46.7424 16.8022 46.9977 16.9724 47.2152 17.1899C47.4327 17.4073 47.6029 17.6626 47.7258 17.9557C47.8487 18.2489 47.9102 18.5609 47.9102 18.8918Z" fill="#FF4A22"/>
<path id="Vector_5" d="M30.3518 4.07053V12.2116H34.4223C34.9802 12.2116 35.505 12.1076 35.9966 11.8996C36.4883 11.6821 36.9185 11.389 37.2873 11.0202C37.656 10.6515 37.9444 10.2212 38.1525 9.72956C38.3699 9.22843 38.4787 8.69893 38.4787 8.14106C38.4787 7.5832 38.3699 7.05843 38.1525 6.56675C37.9444 6.06561 37.656 5.63067 37.2873 5.26191C36.9185 4.89315 36.4883 4.60476 35.9966 4.39674C35.505 4.17927 34.9802 4.07053 34.4223 4.07053H30.3518ZM30.3518 20.3385H26.2812V0H34.4223C35.1693 0 35.8879 0.0992813 36.5781 0.297844C37.2684 0.486951 37.9113 0.761156 38.507 1.12046C39.1122 1.47031 39.6606 1.8958 40.1523 2.39693C40.6534 2.88861 41.0789 3.43702 41.4287 4.04217C41.788 4.64731 42.0622 5.295 42.2514 5.98524C42.4499 6.67548 42.5492 7.39409 42.5492 8.14106C42.5492 9.2568 42.3364 10.3111 41.911 11.3039C41.4855 12.2872 40.904 13.1477 40.1664 13.8852C39.4289 14.6227 38.5638 15.2042 37.5709 15.6297C36.5876 16.0552 35.538 16.2679 34.4223 16.2679H30.3518V20.3385Z" fill="#FF4A22"/>
<path id="Vector_6" d="M22.4944 20.3385H18.4238V0H22.4944V20.3385Z" fill="#FF4A22"/>
<path id="Vector_7" d="M10.1692 20.3385H6.11289V4.07053H0V0H16.2679V4.07053H10.1692V20.3385Z" fill="#FF4A22"/>
</g>
</svg>
