<svg width="137" height="102" viewBox="0 0 137 102" fill="none" xmlns="http://www.w3.org/2000/svg">
<path d="M0.601562 7.75901C0.756352 5.7081 2.73765 1.51837 9.42455 1.16678C16.1114 0.815199 38.8345 1.02029 49.3602 1.16678C53.4395 1.16678 58.435 3.28186 59.5763 8.44385C60.0923 10.7777 61.429 14.6293 64.4773 15.6697H67.9349C66.59 16.0471 65.447 16.0007 64.4773 15.6697H0.601562V7.75901Z" fill="white"/>
<path d="M0.601562 14.9727H126.203C131.726 14.9727 136.203 19.4498 136.203 24.9727V91.9449C136.203 97.4677 131.726 101.945 126.203 101.945H10.6015C5.0787 101.945 0.601562 97.4677 0.601562 91.9449V14.9727Z" fill="white"/>
</svg>
