<svg width="136" height="101" viewBox="0 0 136 101" fill="none" xmlns="http://www.w3.org/2000/svg">
<mask id="path-1-inside-1_52_1379" fill="white">
<path fill-rule="evenodd" clip-rule="evenodd" d="M8.82299 0.194128C2.13609 0.545714 0.154789 4.73544 0 6.78636V14V14.697V90.9722C0 96.4951 4.47714 100.972 9.99998 100.972H125.602C131.125 100.972 135.602 96.4951 135.602 90.9722V24C135.602 18.4772 131.125 14 125.602 14H62.541C60.4209 12.4637 59.4082 9.43188 58.9747 7.47119C57.8335 2.3092 52.838 0.194128 48.7586 0.194128C38.233 0.0476346 15.5099 -0.157457 8.82299 0.194128Z"/>
</mask>
<path fill-rule="evenodd" clip-rule="evenodd" d="M8.82299 0.194128C2.13609 0.545714 0.154789 4.73544 0 6.78636V14V14.697V90.9722C0 96.4951 4.47714 100.972 9.99998 100.972H125.602C131.125 100.972 135.602 96.4951 135.602 90.9722V24C135.602 18.4772 131.125 14 125.602 14H62.541C60.4209 12.4637 59.4082 9.43188 58.9747 7.47119C57.8335 2.3092 52.838 0.194128 48.7586 0.194128C38.233 0.0476346 15.5099 -0.157457 8.82299 0.194128Z" fill="white"/>
<path d="M0 6.78636L-1.49575 6.67347L-1.5 6.72983V6.78636H0ZM8.82299 0.194128L8.90175 1.69206L8.82299 0.194128ZM62.541 14L61.6609 15.2146L62.0547 15.5H62.541V14ZM58.9747 7.47119L60.4393 7.14738L60.4393 7.14738L58.9747 7.47119ZM48.7586 0.194128L48.7377 1.69398L48.7482 1.69413H48.7586V0.194128ZM1.49575 6.89924C1.59584 5.57298 2.9957 2.00259 8.90175 1.69206L8.74423 -1.3038C1.27648 -0.911161 -1.28627 3.8979 -1.49575 6.67347L1.49575 6.89924ZM1.5 14V6.78636H-1.5V14H1.5ZM1.5 14.697V14H-1.5V14.697H1.5ZM1.5 90.9722V14.697H-1.5V90.9722H1.5ZM9.99998 99.4722C5.30557 99.4722 1.5 95.6666 1.5 90.9722H-1.5C-1.5 97.3235 3.64871 102.472 9.99998 102.472V99.4722ZM125.602 99.4722H9.99998V102.472H125.602V99.4722ZM134.102 90.9722C134.102 95.6666 130.296 99.4722 125.602 99.4722V102.472C131.953 102.472 137.102 97.3235 137.102 90.9722H134.102ZM134.102 24V90.9722H137.102V24H134.102ZM125.602 15.5C130.296 15.5 134.102 19.3056 134.102 24H137.102C137.102 17.6487 131.953 12.5 125.602 12.5V15.5ZM62.541 15.5H125.602V12.5H62.541V15.5ZM57.5101 7.795C57.7426 8.84671 58.1354 10.2124 58.7725 11.5427C59.4042 12.8616 60.3237 14.2456 61.6609 15.2146L63.4212 12.7854C62.6383 12.218 61.9913 11.318 61.4782 10.2468C60.9706 9.18689 60.6403 8.05636 60.4393 7.14738L57.5101 7.795ZM48.7586 1.69413C52.4745 1.69413 56.5837 3.60478 57.5101 7.79501L60.4393 7.14738C59.0832 1.01362 53.2014 -1.30587 48.7586 -1.30587V1.69413ZM8.90175 1.69206C15.5257 1.34378 38.1848 1.54711 48.7377 1.69398L48.7795 -1.30573C38.2811 -1.45184 15.4941 -1.6587 8.74423 -1.3038L8.90175 1.69206Z" fill="#FF4A22" mask="url(#path-1-inside-1_52_1379)"/>
</svg>
