<svg width="120" height="44" viewBox="0 0 120 44" fill="none" xmlns="http://www.w3.org/2000/svg">
    <rect width="120" height="33" rx="8" fill="#FF4A22" />
    <path d="M21.165 22.1287H26.0001" stroke="white" stroke-linecap="round" stroke-linejoin="round" />
    <path fill-rule="evenodd" clip-rule="evenodd"
        d="M20.52 11.0299C21.0371 10.4119 21.9667 10.3212 22.5975 10.8278C22.6324 10.8553 23.753 11.7259 23.753 11.7259C24.446 12.1448 24.6613 13.0354 24.2329 13.7151C24.2102 13.7515 17.8746 21.6763 17.8746 21.6763C17.6639 21.9393 17.3439 22.0945 17.0019 22.0982L14.5757 22.1287L14.029 19.8149C13.9524 19.4895 14.029 19.1478 14.2398 18.8849L20.52 11.0299Z"
        stroke="white" stroke-linecap="round" stroke-linejoin="round" />
    <path d="M19.3472 12.5005L22.982 15.2919" stroke="white" stroke-linecap="round"
        stroke-linejoin="round" />
    <path
        d="M45.3457 15.0693V15.9072H43.8525V20.9023H42.832V11.2881H43.8525V15.0693H45.3457ZM36.7197 18.4854V12.2227H37.7295V17.6367C39.0723 17.6313 40.4741 17.5186 42.0049 17.207L42.123 18.0664C40.4741 18.394 38.9595 18.4907 37.5146 18.4854H36.7197ZM48.998 11.9756C50.5181 11.9702 51.6138 12.9102 51.6191 14.2637C51.6138 15.6172 50.5181 16.5571 48.998 16.5625C47.4834 16.5571 46.3716 15.6172 46.377 14.2637C46.3716 12.9102 47.4834 11.9702 48.998 11.9756ZM45.915 18.0127C47.666 18.0127 50.0938 17.9966 52.1992 17.6904L52.2744 18.4316C50.0991 18.8506 47.7627 18.8613 46.0439 18.8613L45.915 18.0127ZM47.3867 14.2637C47.376 15.1177 48.0635 15.6709 48.998 15.6709C49.9326 15.6709 50.6201 15.1177 50.6201 14.2637C50.6201 13.4204 49.9326 12.8564 48.998 12.8564C48.0635 12.8564 47.376 13.4204 47.3867 14.2637ZM52.8008 20.9346V11.2881H53.8213V20.9346H52.8008ZM63.2314 11.8145V12.6201H59.6328V13.6621H62.9629V14.4678H59.6328V15.5527C61.5557 15.5366 62.6782 15.4937 63.9834 15.2734L64.0908 16.0898C62.6997 16.3262 61.502 16.3638 59.3965 16.3691H58.6016V11.8145H63.2314ZM59.7402 20.7949V17.0996H60.7393V18.0986H65.0254V17.0996H66.0352V20.7949H59.7402ZM60.7393 19.9678H65.0254V18.8936H60.7393V19.9678ZM65.0146 16.6484V11.2881H66.0352V16.6484H65.0146ZM74.5859 17.3359C76.6699 17.3359 77.9858 17.9966 77.9912 19.1191C77.9858 20.2363 76.6699 20.897 74.5859 20.8916C72.5234 20.897 71.2021 20.2363 71.2021 19.1191C71.2021 17.9966 72.5234 17.3359 74.5859 17.3359ZM70.2568 16.541V15.7139H73.7695V13.9092H74.7686V15.7139H79.0117V16.541H70.2568ZM71.2773 12.5771V11.7607H77.916V12.5664C77.9214 13.3345 77.9214 14.1294 77.6475 15.123L76.6484 15.0156C76.9062 14.0327 76.9062 13.3237 76.9062 12.5771H71.2773ZM72.2227 19.1191C72.2119 19.7422 73.1304 20.1021 74.5859 20.1074C76.0576 20.1021 76.9707 19.7422 76.9814 19.1191C76.9707 18.4854 76.0576 18.1147 74.5859 18.1094C73.1304 18.1147 72.2119 18.4854 72.2227 19.1191ZM88.5508 16.7236V17.5615H86.3164V20.9131H85.2852V17.5615H82.9863V20.9131H81.9336V17.5615H79.7422V16.7236H88.5508ZM80.6982 13.7803C80.7036 12.4805 82.0894 11.6533 84.125 11.6533C86.1606 11.6533 87.5571 12.4805 87.5518 13.7803C87.5571 15.064 86.1606 15.875 84.125 15.8643C82.0894 15.875 80.7036 15.064 80.6982 13.7803ZM81.751 13.7803C81.7456 14.5698 82.6963 15.0586 84.125 15.0586C85.5591 15.0586 86.5044 14.5698 86.5098 13.7803C86.5044 12.9692 85.5591 12.4751 84.125 12.4697C82.6963 12.4751 81.7456 12.9692 81.751 13.7803ZM96.7578 11.2881V15.1875H98.3047V16.0361H96.7578V20.9131H95.748V11.2881H96.7578ZM89.2061 13.6299V12.792H91.5801V11.417H92.6006V12.792H94.9102V13.6299H89.2061ZM89.7002 16.5732C89.7002 15.2627 90.71 14.3389 92.0957 14.3389C93.4761 14.3389 94.4858 15.2627 94.4912 16.5732C94.4858 17.8945 93.4761 18.813 92.0957 18.8184C90.71 18.813 89.7002 17.8945 89.7002 16.5732ZM90.6777 16.5732C90.6724 17.4111 91.2739 17.9697 92.0957 17.959C92.9121 17.9697 93.5083 17.4111 93.5137 16.5732C93.5083 15.7515 92.9121 15.1821 92.0957 15.1768C91.2739 15.1821 90.6724 15.7515 90.6777 16.5732ZM106.77 11.2881V20.9131H105.738V11.2881H106.77ZM98.8633 18.335C101.42 17.1157 102.671 15.3809 102.87 13.1357H99.3252V12.3193H103.901C103.901 15.1392 102.704 17.5776 99.4004 19.1621L98.8633 18.335Z"
        fill="white" />
    <path
        d="M118.257 42.2779L107.114 31.0276C106.597 30.5056 106.8 29.623 107.494 29.3801L118.667 25.467C119.318 25.239 119.999 25.7229 119.997 26.4127L119.968 41.5761C119.966 42.4684 118.885 42.9118 118.257 42.2779Z"
        fill="#FF4A22" />
</svg>