<svg width="136" height="101" viewBox="0 0 136 101" fill="none" xmlns="http://www.w3.org/2000/svg">
<path d="M59 10H120C122.761 10 125 12.2386 125 15H59V10Z" fill="#FF4A22"/>
<mask id="path-2-inside-1_52_1349" fill="white">
<path fill-rule="evenodd" clip-rule="evenodd" d="M8.82299 0.194129C2.13609 0.545714 0.154789 4.73544 0 6.78636V14.0005V14.697V90.9727C0 96.4956 4.47714 100.973 9.99998 100.973H125.602C131.125 100.973 135.602 96.4956 135.602 90.9727V24.0005C135.602 18.4776 131.125 14.0005 125.602 14.0005H62.5417C60.4211 12.4643 59.4082 9.43209 58.9747 7.47119C57.8335 2.3092 52.838 0.194129 48.7586 0.194129C38.233 0.0476346 15.5099 -0.157457 8.82299 0.194129Z"/>
</mask>
<path fill-rule="evenodd" clip-rule="evenodd" d="M8.82299 0.194129C2.13609 0.545714 0.154789 4.73544 0 6.78636V14.0005V14.697V90.9727C0 96.4956 4.47714 100.973 9.99998 100.973H125.602C131.125 100.973 135.602 96.4956 135.602 90.9727V24.0005C135.602 18.4776 131.125 14.0005 125.602 14.0005H62.5417C60.4211 12.4643 59.4082 9.43209 58.9747 7.47119C57.8335 2.3092 52.838 0.194129 48.7586 0.194129C38.233 0.0476346 15.5099 -0.157457 8.82299 0.194129Z" fill="white"/>
<path d="M0 6.78636L-1.49575 6.67347L-1.5 6.72983V6.78636H0ZM8.82299 0.194129L8.90175 1.69206L8.82299 0.194129ZM62.5417 14.0005L61.6617 15.2153L62.0555 15.5005H62.5417V14.0005ZM58.9747 7.47119L60.4393 7.14738L60.4393 7.14738L58.9747 7.47119ZM48.7586 0.194129L48.7377 1.69398L48.7482 1.69413H48.7586V0.194129ZM1.49575 6.89924C1.59584 5.57298 2.9957 2.00259 8.90175 1.69206L8.74423 -1.3038C1.27648 -0.911161 -1.28627 3.8979 -1.49575 6.67347L1.49575 6.89924ZM1.5 14.0005V6.78636H-1.5V14.0005H1.5ZM1.5 14.697V14.0005H-1.5V14.697H1.5ZM1.5 90.9727V14.697H-1.5V90.9727H1.5ZM9.99998 99.4727C5.30557 99.4727 1.5 95.6671 1.5 90.9727H-1.5C-1.5 97.324 3.64871 102.473 9.99998 102.473V99.4727ZM125.602 99.4727H9.99998V102.473H125.602V99.4727ZM134.102 90.9727C134.102 95.6671 130.296 99.4727 125.602 99.4727V102.473C131.953 102.473 137.102 97.324 137.102 90.9727H134.102ZM134.102 24.0005V90.9727H137.102V24.0005H134.102ZM125.602 15.5005C130.296 15.5005 134.102 19.3061 134.102 24.0005H137.102C137.102 17.6492 131.953 12.5005 125.602 12.5005V15.5005ZM62.5417 15.5005H125.602V12.5005H62.5417V15.5005ZM57.5101 7.795C57.7426 8.84682 58.1355 10.2127 58.7727 11.5431C59.4046 12.8622 60.3242 14.2463 61.6617 15.2153L63.4217 12.7857C62.6386 12.2185 61.9915 11.3185 61.4784 10.2471C60.9707 9.18713 60.6403 8.05646 60.4393 7.14738L57.5101 7.795ZM48.7586 1.69413C52.4745 1.69413 56.5837 3.60478 57.5101 7.79501L60.4393 7.14738C59.0832 1.01362 53.2014 -1.30587 48.7586 -1.30587V1.69413ZM8.90175 1.69206C15.5257 1.34378 38.1848 1.54711 48.7377 1.69398L48.7795 -1.30573C38.2811 -1.45184 15.4941 -1.6587 8.74423 -1.3038L8.90175 1.69206Z" fill="#FF4A22" mask="url(#path-2-inside-1_52_1349)"/>
</svg>
