<svg width="136" height="101" viewBox="0 0 136 101" fill="none" xmlns="http://www.w3.org/2000/svg">
<path d="M59 10H120C122.761 10 125 12.2386 125 15V15H59V10Z" fill="#FF4A22"/>
<path d="M0 6.78636C0.154789 4.73544 2.13609 0.545714 8.82299 0.194128C15.5099 -0.157457 38.233 0.0476346 48.7586 0.194128C52.838 0.194128 57.8335 2.3092 58.9747 7.47119C59.4907 9.80508 60.8274 13.6567 63.8757 14.697H67.3333C65.9884 15.0745 64.8455 15.028 63.8757 14.697H0V6.78636Z" fill="white"/>
<path d="M0 14.0005H125.602C131.125 14.0005 135.602 18.4776 135.602 24.0005V90.9727C135.602 96.4956 131.125 100.973 125.602 100.973H9.99998C4.47714 100.973 0 96.4956 0 90.9727V14.0005Z" fill="white"/>
</svg>
