<svg width="136" height="102" viewBox="0 0 136 102" fill="none" xmlns="http://www.w3.org/2000/svg">
<path d="M0 7.75901C0.154789 5.7081 2.13609 1.51837 8.82299 1.16678C15.5099 0.815199 38.233 1.02029 48.7586 1.16678C52.838 1.16678 57.8335 3.28186 58.9747 8.44385C59.4907 10.7777 60.8274 14.6293 63.8757 15.6697H67.3333C65.9884 16.0471 64.8455 16.0007 63.8757 15.6697H0V7.75901Z" fill="#FF4A22"/>
<path d="M0 14.9731H125.602C131.125 14.9731 135.602 19.4503 135.602 24.9731V91.9454C135.602 97.4682 131.125 101.945 125.602 101.945H9.99998C4.47714 101.945 0 97.4682 0 91.9454V14.9731Z" fill="#F9FAFB"/>
</svg>
