<svg width="51" height="30" viewBox="0 0 51 30" fill="none" xmlns="http://www.w3.org/2000/svg">
<path d="M0 17.5216C0 11.9987 4.47715 7.52158 10 7.52158H41C46.5228 7.52158 51 11.9987 51 17.5216V19.5216C51 25.0444 46.5228 29.5216 41 29.5216H10C4.47715 29.5216 0 25.0444 0 19.5216V17.5216Z" fill="#FF4A22"/>
<path d="M47.2569 0.309395L40.0659 7.79853C39.5647 8.32057 39.7668 9.18571 40.4475 9.43163L47.6575 12.0366C48.3101 12.2723 48.9795 16.6939 48.9782 16V1.00011C48.9765 0.100295 47.8801 -0.339658 47.2569 0.309395Z" fill="#FF4A22"/>
<path d="M26 13V23" stroke="white" stroke-width="0.6"/>
</svg>
