<svg width="136" height="101" viewBox="0 0 136 101" fill="none" xmlns="http://www.w3.org/2000/svg">
<path d="M0 6.78636C0.154789 4.73544 2.13609 0.545714 8.82299 0.194128C15.5099 -0.157457 38.233 0.0476346 48.7586 0.194128C52.838 0.194128 57.8335 2.3092 58.9747 7.47119C59.4907 9.80508 60.8274 13.6567 63.8757 14.697H67.3333C65.9884 15.0745 64.8455 15.028 63.8757 14.697H0V6.78636Z" fill="#FF4A22"/>
<path d="M0.75 14.7504H125.602C130.71 14.7504 134.852 18.8918 134.852 24.0004V90.9726C134.852 96.0813 130.71 100.223 125.602 100.223H9.99998C4.89135 100.223 0.75 96.0813 0.75 90.9726V14.7504Z" fill="white" stroke="#FF4A22" stroke-width="1.5"/>
</svg>
