<svg width="16" height="16" viewBox="0 0 16 16" fill="none" xmlns="http://www.w3.org/2000/svg">
<path fill-rule="evenodd" clip-rule="evenodd" d="M8.30674 5.16071L8.81435 6.17481C8.8641 6.27437 8.96013 6.3434 9.07149 6.35937L10.207 6.52283C10.4876 6.56333 10.5992 6.90336 10.3962 7.0982L9.57505 7.88722C9.49435 7.96481 9.45762 8.07635 9.47671 8.18589L9.6705 9.29983C9.71822 9.57539 9.42494 9.78562 9.17417 9.65526L8.15923 9.12896C8.05973 9.07733 7.94056 9.07733 7.84077 9.12896L6.82583 9.65526C6.57506 9.78562 6.28178 9.57539 6.32979 9.29983L6.52329 8.18589C6.54238 8.07635 6.50565 7.96481 6.42495 7.88722L5.6038 7.0982C5.40075 6.90336 5.5124 6.56333 5.79296 6.52283L6.92851 6.35937C7.03987 6.3434 7.13619 6.27437 7.18594 6.17481L7.69326 5.16071C7.81879 4.90997 8.18121 4.90997 8.30674 5.16071Z" fill="#FF4A22"/>
<path fill-rule="evenodd" clip-rule="evenodd" d="M7.98963 14.4037C7.98963 14.4037 13.1043 12.855 13.1043 8.58567C13.1043 4.31567 13.2896 3.98234 12.8796 3.57167C12.469 3.16101 8.6603 1.83301 7.98963 1.83301C7.31896 1.83301 3.5103 3.16101 3.1003 3.57167C2.68963 3.98234 2.87496 4.31567 2.87496 8.58567C2.87496 12.855 7.98963 14.4037 7.98963 14.4037Z" stroke="#FF4A22" stroke-linecap="round" stroke-linejoin="round"/>
</svg>
