<svg width="489" height="113" viewBox="0 0 489 113" fill="none" xmlns="http://www.w3.org/2000/svg">
    <path
        d="M424.05 21.5249V64.5749H445.575C448.525 64.5749 451.3 64.0249 453.9 62.9249C456.5 61.7749 458.775 60.2249 460.725 58.2749C462.675 56.3249 464.2 54.0499 465.3 51.4499C466.45 48.7999 467.025 45.9999 467.025 43.0499C467.025 40.0999 466.45 37.3249 465.3 34.7249C464.2 32.0749 462.675 29.7749 460.725 27.8249C458.775 25.8749 456.5 24.3499 453.9 23.2499C451.3 22.0999 448.525 21.5249 445.575 21.5249H424.05ZM424.05 107.55H402.525V-0.00012207H445.575C449.525 -0.00012207 453.325 0.524878 456.975 1.57488C460.625 2.57488 464.025 4.02488 467.175 5.92488C470.375 7.77488 473.275 10.0249 475.875 12.6749C478.525 15.2749 480.775 18.1749 482.625 21.3749C484.525 24.5749 485.975 27.9999 486.975 31.6499C488.025 35.2999 488.55 39.0999 488.55 43.0499C488.55 48.9499 487.425 54.5249 485.175 59.7749C482.925 64.9749 479.85 69.5249 475.95 73.4249C472.05 77.3249 467.475 80.3999 462.225 82.6499C457.025 84.8999 451.475 86.0249 445.575 86.0249H424.05V107.55Z"
    />
    <path d="M382.5 107.55H360.975V-0.00012207H382.5V107.55Z" />
    <path
        d="M347.625 107.55H264.375L310.275 21.5249H264.375V-0.00012207H347.625L301.875 86.0249H347.625V107.55Z"
    />
    <path
        d="M253.35 99.8999C253.35 101.7 253.025 103.4 252.375 105C251.725 106.55 250.825 107.9 249.675 109.05C248.525 110.2 247.175 111.1 245.625 111.75C244.075 112.45 242.4 112.8 240.6 112.8C238.85 112.8 237.175 112.45 235.575 111.75C234.025 111.1 232.65 110.2 231.45 109.05C230.3 107.9 229.375 106.55 228.675 105C228.025 103.4 227.7 101.7 227.7 99.8999C227.7 98.1499 228.025 96.4999 228.675 94.9499C229.375 93.3999 230.3 92.0499 231.45 90.8999C232.65 89.7499 234.025 88.8499 235.575 88.1999C237.175 87.4999 238.85 87.1499 240.6 87.1499C242.4 87.1499 244.075 87.4999 245.625 88.1999C247.175 88.8499 248.525 89.7499 249.675 90.8999C250.825 92.0499 251.725 93.3999 252.375 94.9499C253.025 96.4999 253.35 98.1499 253.35 99.8999Z"
    />
    <path
        d="M160.5 21.5249V64.5749H182.025C184.975 64.5749 187.75 64.0249 190.35 62.9249C192.95 61.7749 195.225 60.2249 197.175 58.2749C199.125 56.3249 200.65 54.0499 201.75 51.4499C202.9 48.7999 203.475 45.9999 203.475 43.0499C203.475 40.0999 202.9 37.3249 201.75 34.7249C200.65 32.0749 199.125 29.7749 197.175 27.8249C195.225 25.8749 192.95 24.3499 190.35 23.2499C187.75 22.0999 184.975 21.5249 182.025 21.5249H160.5ZM160.5 107.55H138.975V-0.00012207H182.025C185.975 -0.00012207 189.775 0.524878 193.425 1.57488C197.075 2.57488 200.475 4.02488 203.625 5.92488C206.825 7.77488 209.725 10.0249 212.325 12.6749C214.975 15.2749 217.225 18.1749 219.075 21.3749C220.975 24.5749 222.425 27.9999 223.425 31.6499C224.475 35.2999 225 39.0999 225 43.0499C225 48.9499 223.875 54.5249 221.625 59.7749C219.375 64.9749 216.3 69.5249 212.4 73.4249C208.5 77.3249 203.925 80.3999 198.675 82.6499C193.475 84.8999 187.925 86.0249 182.025 86.0249H160.5V107.55Z"
    />
    <path d="M118.95 107.55H97.4249V-0.00012207H118.95V107.55Z" />
    <path d="M53.775 107.55H32.325V21.525H0V0H86.025V21.525H53.775V107.55Z" />
</svg>