<svg width="16" height="16" viewBox="0 0 16 16" fill="none" xmlns="http://www.w3.org/2000/svg">
<path fill-rule="evenodd" clip-rule="evenodd" d="M10.8645 10.3589C10.9185 11.5803 9.93274 12.6131 8.66304 12.665C8.56951 12.6689 4.01017 12.6597 4.01017 12.6597C2.7466 12.7556 1.64073 11.8477 1.54106 10.6309C1.53355 10.5402 1.5356 5.64813 1.5356 5.64813C1.47962 4.42544 2.46399 3.38999 3.73438 3.33612C3.82927 3.33152 8.38247 3.34006 8.38247 3.34006C9.65218 3.24545 10.7615 4.16001 10.8598 5.3827C10.8666 5.47074 10.8645 10.3589 10.8645 10.3589Z" stroke="#838991" stroke-width="0.8" stroke-linecap="round" stroke-linejoin="round"/>
<path d="M10.8667 6.65323L13.062 4.85656C13.606 4.41123 14.422 4.79923 14.4213 5.50123L14.4133 10.4006C14.4127 11.1026 13.596 11.4872 13.0533 11.0419L10.8667 9.24523" stroke="#838991" stroke-width="0.8" stroke-linecap="round" stroke-linejoin="round"/>
</svg>
