<svg width="14" height="12" viewBox="0 0 14 12" fill="none" xmlns="http://www.w3.org/2000/svg">
<path fill-rule="evenodd" clip-rule="evenodd" d="M9.86467 8.35904C9.9186 9.58041 8.93287 10.6132 7.66316 10.6651C7.56964 10.6691 3.01029 10.6599 3.01029 10.6599C1.74672 10.7558 0.640848 9.84782 0.541182 8.63104C0.533673 8.54037 0.535721 3.64829 0.535721 3.64829C0.479745 2.4256 1.46411 1.39015 2.7345 1.33628C2.82939 1.33168 7.38259 1.34022 7.38259 1.34022C8.6523 1.24561 9.76159 2.16017 9.85989 3.38286C9.86672 3.4709 9.86467 8.35904 9.86467 8.35904Z" stroke="#838991" stroke-width="0.8" stroke-linecap="round" stroke-linejoin="round"/>
<path d="M9.8667 4.65355L12.062 2.85688C12.606 2.41155 13.422 2.79955 13.4214 3.50155L13.4134 8.40088C13.4127 9.10288 12.596 9.48755 12.0534 9.04222L9.8667 7.24555" stroke="#838991" stroke-width="0.8" stroke-linecap="round" stroke-linejoin="round"/>
</svg>
