<svg width="77" height="78" viewBox="0 0 77 78" fill="none" xmlns="http://www.w3.org/2000/svg">
    <g id="Group 36985">
        <path id="Rectangle 74"
            d="M0 16.5176C0 7.68102 7.16344 0.517578 16 0.517578H61C69.8366 0.517578 77 7.68102 77 16.5176V61.5176C77 70.3541 69.8366 77.5176 61 77.5176H16C7.16345 77.5176 0 70.3541 0 61.5176V16.5176Z"
            fill="black" />
        <g id=".Z">
            <path id="Vector"
                d="M61.8153 51.7367L32.4979 59.5923L40.5447 24.9665L24.3805 29.2977L22.3494 21.7174L51.6667 13.8618L43.6728 48.4735L59.7841 44.1564L61.8153 51.7367Z"
                fill="white" />
            <path id="Vector_2"
                d="M27.8935 57.9386C28.0633 58.5725 28.1093 59.2018 28.0314 59.8266C27.9487 60.4338 27.7592 60.9941 27.4627 61.5076C27.1662 62.0211 26.7757 62.4655 26.2912 62.8406C25.8114 63.2334 25.2546 63.5147 24.6207 63.6846C24.0044 63.8497 23.3815 63.8845 22.752 63.7889C22.1448 63.7063 21.5757 63.5191 21.0446 63.2274C20.5311 62.9309 20.0779 62.5428 19.6852 62.063C19.3053 61.5608 19.0304 60.9928 18.8606 60.3589C18.6954 59.7427 18.6542 59.1309 18.7368 58.5237C18.8371 57.9118 19.0355 57.3491 19.3319 56.8356C19.646 56.3174 20.0453 55.8707 20.5298 55.4956C21.0272 55.0981 21.5841 54.8168 22.2003 54.6516C22.8342 54.4818 23.4571 54.447 24.069 54.5472C24.6762 54.6299 25.2366 54.8194 25.7501 55.1159C26.2636 55.4124 26.7079 55.8029 27.083 56.2874C27.4582 56.7719 27.7284 57.3223 27.8935 57.9386Z"
                fill="white" />
        </g>
    </g>
</svg>